<?xml version="1.0" encoding="UTF-8"?>
<svg width="50px" height="50px" viewBox="0 0 50 50" version="1.1" xmlns="http://www.w3.org/2000/svg" xmlns:xlink="http://www.w3.org/1999/xlink">
    <!-- Generator: Sketch 50.2 (55047) - http://www.bohemiancoding.com/sketch -->
    <title>logo</title>
    <desc>Created with Sketch.</desc>
    <defs></defs>
    <g id="logo" stroke="none" stroke-width="1" fill="none" fill-rule="evenodd">
        <path d="M36.8864507,37.707623 L40.2646982,41.2384092 C36.1462784,45.5462016 30.5597826,47.9661458 24.7334872,47.9661458 C12.6040855,47.9661458 2.76951074,37.6842983 2.76951074,25 C2.76951074,12.3171595 12.6040855,2.03385417 24.7334872,2.03385417 C30.5597826,2.03385417 36.1462784,4.45525624 40.2646982,8.76159081 L36.8864507,12.2938348 C33.6632365,8.92340636 29.2924693,7.02972707 24.7334872,7.02972707 C15.2418818,7.02972707 7.54737969,15.0753129 7.54737969,25 C7.54737969,34.9246871 15.2418818,42.9717307 24.7334872,42.9717307 C29.2924693,42.9717307 33.6632365,41.0780514 36.8864507,37.707623 Z" id="Fill-1" fill="#FFFFFF"></path>
        <path d="M24.6819024,17.2328536 C20.6080964,17.2328536 17.3066685,20.6849186 17.3066685,24.9446037 C17.3066685,29.2057465 20.6080964,32.6563538 24.6819024,32.6563538 C28.7557084,32.6563538 32.0585305,29.2057465 32.0585305,24.9446037 C32.0585305,20.6849186 28.7557084,17.2328536 24.6819024,17.2328536 Z M24.6819024,12.2384385 C31.3935047,12.2384385 36.8348659,17.9267653 36.8348659,24.9446037 C36.8348659,31.9624421 31.3935047,37.6522267 24.6819024,37.6522267 C17.9716943,37.6522267 12.5287995,31.9624421 12.5287995,24.9446037 C12.5287995,17.9267653 17.9716943,12.2384385 24.6819024,12.2384385 Z" id="Fill-2" fill="#FFFFFF"></path>
        <path d="M44.0276011,20.985225 C42.0311295,20.985225 40.4124817,22.6762704 40.4124817,24.7638368 C40.4124817,26.8514031 42.0311295,28.5439063 44.0276011,28.5439063 C46.025467,28.5439063 47.6427205,26.8514031 47.6427205,24.7638368 C47.6427205,22.6762704 46.025467,20.985225 44.0276011,20.985225 Z" id="Fill-3" fill="#FFFFFF"></path>
    </g>
</svg>